# xmcd
#
# Track frame offsets:
# 150
# 17592
# 35775
# 52527
# 72427
# 89240
# 104982
# 114147
# 130542
# 148492
#
# Disc length: 2223 seconds
#
#
# Revision: 0
# Processed by: cddbd v1.5.1PL0 Copyright (c) Steve Scherf et al.
# Submitted via: FreeRIP 2.942 
#
DISCID=9008ad0a
DTITLE=Junior Falcone - Junior Falcone 
DYEAR=1900
DGENRE=Funk
TTITLE0=1977
TTITLE1=tout le monde chante
TTITLE2=de'dicace a` la musique
TTITLE3=soleil en de'cembre
TTITLE4=oggi(feat. Valentina)
TTITLE5=tout l'e'te'
TTITLE6=prima volta(instrumental)
TTITLE7=du co^te' de l'amour
TTITLE8=la main dans la main
TTITLE9=tout le monde chante(feat. Toto Cutugno)
EXTD=
EXTT0=
EXTT1=
EXTT2=
EXTT3=
EXTT4=
EXTT5=
EXTT6=
EXTT7=
EXTT8=
EXTT9=
PLAYORDER=
